<svg width="135" height="32" viewBox="0 0 135 32" fill="none" xmlns="http://www.w3.org/2000/svg">
<path d="M8.94011 30.6377C2.83896 23.7903 0.0568914 10.4098 0.0116017 10.2496C-0.0466278 9.92297 0.102181 9.52233 0.736235 9.52233H4.6829C4.85947 9.50993 5.03432 9.56241 5.17151 9.66905C5.3087 9.77569 5.39779 9.92825 5.42047 10.0955C6.99914 17.1217 10.0336 23.8519 11.4829 25.7441C12.9321 23.8519 15.9665 17.1155 17.5451 10.0955C17.5678 9.92825 17.657 9.77569 17.7941 9.66905C17.9313 9.56241 18.1062 9.50993 18.2827 9.52233H22.2164C22.8635 9.52233 22.9993 9.92297 22.9411 10.2496C22.9411 10.4098 20.1267 23.8088 14.0255 30.6377C13.7242 31.0038 13.3376 31.2979 12.8963 31.4969C12.4549 31.6959 11.971 31.7942 11.4829 31.7841C10.9947 31.7942 10.5107 31.6959 10.0694 31.4969C9.62808 31.2979 9.24143 31.0038 8.94011 30.6377ZM28.8287 9.98544e-05C28.1966 9.98544e-05 27.5787 0.178666 27.053 0.513217C26.5274 0.847769 26.1178 1.32328 25.8759 1.87962C25.6339 2.43595 25.5706 3.04814 25.694 3.63874C25.8174 4.22935 26.1217 4.77185 26.5687 5.19766C27.0157 5.62346 27.5852 5.91344 28.2052 6.03092C28.8252 6.14839 29.4678 6.0881 30.0519 5.85765C30.6359 5.62721 31.135 5.23697 31.4862 4.73628C31.8374 4.23559 32.0249 3.64693 32.0249 3.04475C32.0249 2.23727 31.6881 1.46284 31.0888 0.891857C30.4893 0.320875 29.6764 9.98544e-05 28.8287 9.98544e-05ZM58.9528 9.98544e-05C58.3196 -0.00478453 57.6991 0.169622 57.1702 0.50119C56.6411 0.832761 56.2275 1.30655 55.9816 1.86243C55.7356 2.41832 55.6687 3.03127 55.7891 3.62348C55.9094 4.21571 56.2118 4.76052 56.6577 5.18879C57.1036 5.61706 57.6731 5.90949 58.2938 6.02898C58.9145 6.14848 59.5584 6.08964 60.1439 5.85993C60.7295 5.63024 61.2302 5.24003 61.5826 4.73881C61.9349 4.2376 62.123 3.64798 62.123 3.04475C62.1231 2.24151 61.7899 1.47081 61.1961 0.900529C60.6023 0.330248 59.7959 0.00660382 58.9528 9.98544e-05ZM30.6338 9.52233H27.0237C26.4672 9.52233 26.189 9.77505 26.189 10.2742V30.8165C26.189 31.3157 26.4672 31.5623 27.0237 31.5623H30.6338C31.1902 31.5623 31.4685 31.3157 31.4685 30.8165V10.2742C31.4685 9.77505 31.1902 9.52233 30.6338 9.52233ZM60.7579 9.52233H57.1477C56.5977 9.52233 56.3195 9.77505 56.3195 10.2742V30.8165C56.3195 31.3157 56.5977 31.5623 57.1477 31.5623H60.7579C61.3144 31.5623 61.5926 31.3157 61.5926 30.8165V10.2742C61.5926 9.77505 61.3144 9.52233 60.7579 9.52233ZM88.8508 30.8165C88.8508 31.3157 89.1285 31.5623 89.6847 31.5623H93.2955C93.8517 31.5623 94.1235 31.3157 94.1235 30.8165V14.1756C95.2038 13.4792 98.5749 12.3944 101.02 13.7689C102.508 14.6009 103.071 16.8505 103.058 19.5131V30.8165C103.058 31.3157 103.337 31.5623 103.893 31.5623H107.503C108.053 31.5623 108.331 31.3157 108.331 30.8165V19.174C108.331 12.3041 105.032 8.83617 98.4323 8.77041C95.1971 8.77041 91.691 9.91681 89.8206 11.4638C89.5167 11.6959 89.2711 11.9905 89.1031 12.3256C88.9352 12.6607 88.8491 13.0277 88.8508 13.3991V30.8165ZM125.082 13.621C125.606 13.621 125.872 13.3559 125.872 12.8259V10.3113C125.872 9.78121 125.606 9.52233 125.082 9.52233H119.434V4.36986C119.434 3.87064 119.156 3.62411 118.606 3.62411H114.996C114.439 3.62411 114.161 3.87064 114.161 4.36986V9.52233H111.153C110.629 9.52233 110.363 9.78121 110.363 10.3113V12.8259C110.363 13.3559 110.629 13.621 111.153 13.621H114.161V24.2033C114.161 27.3527 115.397 29.0784 116.011 29.7503C116.677 30.4739 117.506 31.0444 118.436 31.4191C119.366 31.7938 120.373 31.9628 121.382 31.9135C123.685 31.8575 125.881 30.9773 127.535 29.4483C127.922 29.0661 127.858 28.8319 127.644 28.5854L125.82 26.3173C125.766 26.2459 125.696 26.1864 125.616 26.1427C125.536 26.0991 125.447 26.0723 125.355 26.0641C125.263 26.0559 125.17 26.0666 125.084 26.0954C124.996 26.1242 124.916 26.1704 124.849 26.231C124.202 26.7241 122.87 27.8273 121.045 27.1802C119.719 26.7117 119.434 25.3311 119.434 24.2464V13.621H125.082ZM80.2389 22.1879H70.6181C70.6181 25.1093 72.7337 27.6979 76.1693 27.6979C78.2566 27.6991 80.2698 26.961 81.8176 25.627C81.8779 25.5549 81.9559 25.4982 82.045 25.4621C82.1339 25.4259 82.231 25.4115 82.3273 25.4201C82.4237 25.4287 82.5162 25.4599 82.5966 25.5111C82.6771 25.5623 82.7429 25.6318 82.7881 25.7133C82.7881 25.7133 84.412 27.9074 84.6382 28.1786C84.6964 28.2772 84.7808 28.5114 84.4052 28.8627C83.3086 29.9017 81.9998 30.7155 80.5599 31.2541C79.12 31.7926 77.5794 32.0443 76.0334 31.9936C69.033 31.9936 65.4357 26.5453 65.4357 20.3574C65.4357 12.9183 70.437 8.75809 76.1241 8.75809C77.3134 8.73609 78.4955 8.93913 79.6018 9.35561C80.7081 9.77209 81.7167 10.3937 82.5689 11.1843C83.4211 11.9749 84.1 12.9188 84.5665 13.9613C85.0324 15.0038 85.2771 16.1241 85.2856 17.2573C85.2856 20.5443 83.6033 22.1879 80.2389 22.1879ZM80.42 17.1587C80.4442 16.5877 80.3431 16.0182 80.1235 15.4863C79.9039 14.9546 79.5705 14.4722 79.1445 14.0699C78.7185 13.6675 78.2093 13.354 77.6492 13.1495C77.089 12.9448 76.4903 12.8535 75.8911 12.8814C74.5971 12.8814 71.3234 13.3498 70.8122 18.1756H79.4172C80.0901 18.1674 80.4265 17.8243 80.4265 17.1463L80.42 17.1587ZM52.1076 31.5623C52.6317 31.5623 52.8905 31.2972 52.8905 30.7733V27.9937C52.8905 27.4636 52.6317 27.1987 52.1076 27.1987H41.1863C42.2344 24.6532 48.9632 18.4899 51.273 14.9646C52.1335 13.6579 52.567 12.6471 52.567 11.9877C52.567 11.2296 52.1853 9.52233 49.4678 9.52233H36.6444C36.1203 9.52233 35.8615 9.78737 35.8615 10.3174V13.0478C35.8615 13.5778 36.1203 13.8428 36.6444 13.8428H46.414C45.9482 14.7427 39.4782 21.3312 37.0456 25.2695C36.3986 26.305 35.538 27.9444 35.538 29.1955C35.538 30.7856 36.528 31.5746 38.5013 31.5746L52.1076 31.5623Z" fill="#ED4B08"/>
<path d="M134.541 29.4805C134.541 29.8462 134.427 30.2036 134.213 30.5077C134 30.8118 133.697 31.0487 133.342 31.1887C132.988 31.3287 132.597 31.3652 132.221 31.2939C131.844 31.2226 131.498 31.0465 131.227 30.7879C130.955 30.5293 130.771 30.1999 130.695 29.8412C130.621 29.4825 130.659 29.1107 130.806 28.7729C130.953 28.4351 131.202 28.1463 131.521 27.9431C131.841 27.7399 132.216 27.6314 132.6 27.6314C133.114 27.6314 133.608 27.8263 133.972 28.1731C134.336 28.5198 134.541 28.9901 134.541 29.4805ZM132.6 27.2C132.126 27.2013 131.664 27.336 131.271 27.5874C130.879 27.8386 130.573 28.1952 130.392 28.612C130.213 29.0288 130.166 29.4871 130.259 29.9291C130.352 30.3711 130.581 30.7768 130.916 31.0951C131.251 31.4135 131.677 31.63 132.141 31.7175C132.605 31.805 133.087 31.7595 133.524 31.5867C133.961 31.4139 134.334 31.1216 134.597 30.7467C134.86 30.3719 135 29.9312 135 29.4805C135 29.1805 134.938 28.8835 134.817 28.6063C134.696 28.3293 134.52 28.0776 134.296 27.8658C134.073 27.6539 133.809 27.4861 133.518 27.3719C133.227 27.2576 132.914 27.1992 132.6 27.2ZM133.175 30.6268L132.6 29.7085H132.121V30.6268H131.745V28.2663H132.684C132.895 28.256 133.103 28.3171 133.272 28.4389C133.347 28.5055 133.405 28.5872 133.441 28.6779C133.478 28.7684 133.493 28.8658 133.486 28.9627V29.0306C133.497 29.1757 133.453 29.3198 133.363 29.4373C133.273 29.5394 133.15 29.6107 133.014 29.6407L133.628 30.6268H133.175ZM132.14 29.3942H132.6C132.738 29.4019 132.876 29.3764 133 29.3202C133.045 29.2882 133.08 29.2459 133.103 29.1974C133.125 29.1489 133.135 29.0958 133.13 29.0429V28.9935C133.138 28.9356 133.131 28.8766 133.109 28.8218C133.088 28.767 133.053 28.718 133.007 28.6792C132.906 28.6202 132.789 28.5923 132.67 28.5991H132.153L132.14 29.3942Z" fill="#ED4B08"/>
</svg>
